HIERARCHY
ROOT Hips
{
 OFFSET 0.000000 0.000000 0.000000
 CHANNELS 6 Xposition Yposition Zposition Yrotation Xrotation Zrotation
 JOINT Chest
 {
  OFFSET 0.000000 14.632000 -0.008700
  CHANNELS 3 Yrotation Xrotation Zrotation
  JOINT Chest2
  {
   OFFSET 0.000000 8.637700 0.017800
   CHANNELS 3 Yrotation Xrotation Zrotation
   JOINT Chest3
   {
    OFFSET 0.000000 8.599900 0.000000
    CHANNELS 3 Yrotation Xrotation Zrotation
    JOINT Chest4
    {
     OFFSET 0.000000 8.591100 0.000000
     CHANNELS 3 Yrotation Xrotation Zrotation
     JOINT Neck
     {
      OFFSET 0.000000 13.139200 0.000000
      CHANNELS 3 Yrotation Xrotation Zrotation
      JOINT Head
      {
       OFFSET 0.000000 8.045900 0.037600
       CHANNELS 3 Yrotation Xrotation Zrotation
       End Site
       {
        OFFSET 0.000000 15.258900 0.019900
       }
      }
     }
     JOINT RightCollar
     {
      OFFSET -2.790300 8.725300 0.000000
      CHANNELS 3 Yrotation Xrotation Zrotation
      JOINT RightShoulder
      {
       OFFSET -13.162000 0.000000 0.000000
       CHANNELS 3 Yrotation Xrotation Zrotation
       JOINT RightElbow
       {
        OFFSET 0.000000 -23.347200 0.000000
        CHANNELS 3 Yrotation Xrotation Zrotation
        JOINT RightWrist
        {
         OFFSET 0.000000 -19.377400 0.019700
         CHANNELS 3 Yrotation Xrotation Zrotation
         End Site
         {
          OFFSET 0.000000 -14.645200 0.000000
         }
        }
       }
      }
     }
     JOINT LeftCollar
     {
      OFFSET 2.790300 8.725300 0.000000
      CHANNELS 3 Yrotation Xrotation Zrotation
      JOINT LeftShoulder
      {
       OFFSET 13.162000 0.000000 0.000000
       CHANNELS 3 Yrotation Xrotation Zrotation
       JOINT LeftElbow
       {
        OFFSET 0.000000 -23.347200 0.000000
        CHANNELS 3 Yrotation Xrotation Zrotation
        JOINT LeftWrist
        {
         OFFSET 0.000000 -19.377400 0.019700
         CHANNELS 3 Yrotation Xrotation Zrotation
         End Site
         {
          OFFSET 0.000000 -14.645200 0.000000
         }
        }
       }
      }
     }
    }
   }
  }
 }
 JOINT RightHip
 {
  OFFSET -11.965000 0.043200 0.004400
  CHANNELS 3 Yrotation Xrotation Zrotation
  JOINT RightKnee
  {
   OFFSET 0.000000 -37.808000 -0.003100
   CHANNELS 3 Yrotation Xrotation Zrotation
   JOINT RightAnkle
   {
    OFFSET 0.000000 -38.963200 0.011000
    CHANNELS 3 Yrotation Xrotation Zrotation
    JOINT RightToe
    {
     OFFSET 0.000000 -8.453600 14.155200
     CHANNELS 3 Yrotation Xrotation Zrotation
     End Site
     {
      OFFSET 0.000000 -1.360900 5.784800
     }
    }
   }
  }
 }
 JOINT LeftHip
 {
  OFFSET 11.965000 0.043200 0.004400
  CHANNELS 3 Yrotation Xrotation Zrotation
  JOINT LeftKnee
  {
   OFFSET 0.000000 -37.808000 -0.003100
   CHANNELS 3 Yrotation Xrotation Zrotation
   JOINT LeftAnkle
   {
    OFFSET 0.000000 -38.963200 0.011000
    CHANNELS 3 Yrotation Xrotation Zrotation
    JOINT LeftToe
    {
     OFFSET 0.000000 -8.453600 14.155200
     CHANNELS 3 Yrotation Xrotation Zrotation
     End Site
     {
      OFFSET 0.000000 -1.360900 5.784800
     }
    }
   }
  }
 }
}
MOTION
Frames: 14
Frame Time: 0.008333
0.000000 85.009900 0.000000 0.000000 -5.767877 0.000000 0.000000 11.653817 0.000000 0.000000 -5.885947 0.000000 0.000000 -0.000000 0.000000 0.000000 -0.000000 0.000000 0.000000 12.528835 0.000000 0.000000 0.711642 0.000000 0.000000 -0.000000 0.000000 0.000000 0.000000 -90.000000 0.000000 -2.309062 0.000000 0.000000 2.309062 0.000000 0.000000 -0.000000 0.000000 0.000000 -0.000000 90.000000 0.000000 -2.309062 0.000000 0.000000 2.309062 0.000000 0.000000 8.520406 0.000000 0.000000 1.905762 0.000000 -0.000000 -4.658285 0.000000 0.000000 -0.000000 0.000000 0.000000 8.520406 0.000000 0.000000 1.905762 0.000000 -0.000000 -4.658285 0.000000 0.000000 -0.000000 0.000000
-84.646123 60.886701 4.252947 179.504432 -32.674621 -1.997759 1.594427 23.091154 3.898328 0.061237 3.398836 0.375442 0.263473 5.453708 0.657498 0.973225 19.453854 2.425170 1.227889 14.182503 -1.751809 2.947123 -9.316072 -3.746476 3.878343 -2.634142 -2.107210 17.573461 -18.767839 -25.084483 158.705609 -82.901367 -118.140932 20.331191 -19.032447 -41.369746 -8.221894 -4.693616 -0.220347 2.360080 -3.145992 4.356042 -136.645670 -70.928122 102.667674 -10.031514 -9.120927 17.893053 7.363674 -38.461468 -6.891455 -2.834239 71.554357 -0.956973 3.350595 5.646626 5.914078 -0.071439 0.087231 -0.020993 -9.747636 -46.389020 3.063284 30.959626 68.328190 29.133380 -8.368261 32.229781 2.726121 0.943833 -23.418209 -6.670822
-84.652588 60.888546 4.248549 179.547398 -32.684273 -1.983699 1.606068 23.085203 3.906342 0.070534 3.398685 0.375361 0.254775 5.445401 0.657279 0.945052 19.463770 2.417829 1.204865 14.213195 -1.744516 2.855969 -9.179598 -3.703880 3.934546 -2.653740 -2.110376 17.508238 -18.743975 -25.054192 158.937325 -82.858620 -118.367491 20.322491 -18.991736 -41.339963 -8.199635 -4.689534 -0.220914 2.357415 -3.142260 4.338776 -136.663784 -70.925193 102.656640 -10.029507 -9.106732 17.924839 7.378575 -38.445126 -6.917087 -2.885972 71.574494 -1.038868 3.335957 5.621816 5.941934 -0.074352 0.088783 -0.012056 -9.729174 -46.377812 3.020850 30.937066 68.320207 29.080678 -8.362026 32.239407 2.756841 0.937514 -23.424025 -6.662076
-84.661720 60.889530 4.245163 179.598097 -32.687815 -1.961748 1.619167 23.069406 3.913866 0.113732 3.380547 0.392108 0.164661 5.468559 0.626296 1.026363 19.422206 2.434487 1.113510 14.299042 -1.727235 2.754718 -9.058072 -3.667178 3.889015 -2.626460 -2.099181 17.479305 -18.731308 -25.030008 159.016382 -82.837847 -118.450695 20.318521 -18.971303 -41.317561 -8.247888 -4.644972 -0.216544 2.352708 -3.138365 4.320944 -136.654779 -70.932180 102.667867 -10.030598 -9.113587 17.911931 7.398395 -38.435185 -6.970845 -2.893304 71.600386 -1.069290 3.320773 5.592774 5.967183 -0.074823 0.089288 -0.009915 -9.708213 -46.375686 2.964731 30.958481 68.295411 29.057371 -8.358671 32.271721 2.808554 0.917795 -23.440709 -6.655390
-84.664214 60.890379 4.242354 179.627273 -32.689813 -1.953270 1.646660 23.057003 3.939060 0.112993 3.377359 0.391715 0.136001 5.471700 0.613995 1.069073 19.399375 2.445764 1.051893 14.369147 -1.720814 2.650094 -8.940084 -3.632209 3.863695 -2.610732 -2.091909 17.460663 -18.722024 -25.015960 159.102852 -82.822358 -118.538749 20.320004 -18.961999 -41.304408 -8.257536 -4.616589 -0.213279 2.316250 -3.135541 4.307710 -136.610419 -70.938803 102.672992 -10.028052 -9.124397 17.896656 7.414044 -38.429160 -6.988736 -2.900304 71.613978 -1.094782 3.301755 5.576277 5.991779 -0.064829 0.085770 -0.019141 -9.701611 -46.374161 2.936809 30.957267 68.287671 29.041028 -8.356596 32.284238 2.825679 0.923246 -23.452588 -6.657214
-84.670769 60.890114 4.240895 179.660216 -32.685219 -1.930819 1.661461 23.038686 3.946094 0.111892 3.374689 0.391762 0.177603 5.453708 0.630788 1.014840 19.406938 2.433371 1.004393 14.431715 -1.721437 2.544844 -8.826701 -3.602096 3.856156 -2.601949 -2.089528 17.460291 -18.717765 -25.002565 159.025078 -82.818229 -118.476905 20.312869 -19.002038 -41.269260 -8.245542 -4.596806 -0.210883 2.280001 -3.135135 4.288691 -136.581286 -70.938412 102.662323 -10.025090 -9.120945 17.902612 7.426500 -38.433058 -7.029803 -2.859645 71.634926 -1.079889 3.281623 5.556298 6.017276 -0.070550 0.087893 -0.021962 -9.682392 -46.381400 2.888518 30.955299 68.269858 29.010966 -8.342677 32.319476 2.866718 0.914795 -23.478083 -6.661126
-84.679391 60.892569 4.234990 179.754043 -32.700083 -1.933671 1.592132 23.049358 3.919971 0.138929 3.366502 0.407385 0.162324 5.454054 0.623259 1.022346 19.398856 2.443255 0.952899 14.533337 -1.718319 2.440302 -8.755149 -3.586227 3.826551 -2.588135 -2.093173 17.497788 -18.725613 -24.989324 158.709411 -82.834306 -118.197772 20.308138 -19.049051 -41.245729 -8.232547 -4.579566 -0.206594 2.271290 -3.139710 4.261814 -136.561396 -70.938134 102.645664 -10.021751 -9.118535 17.896742 7.415157 -38.402598 -7.081847 -2.857327 71.662011 -1.095594 3.261821 5.522137 6.041533 -0.070286 0.084388 -0.019365 -9.696479 -46.367040 2.832560 30.914113 68.257593 28.943911 -8.363776 32.333772 2.871552 0.926408 -23.481927 -6.646002
-84.679758 60.893660 4.231613 179.808497 -32.706120 -1.948717 1.567108 23.049120 3.928728 0.140820 3.366077 0.409093 0.202021 5.441119 0.645750 0.998416 19.400019 2.440823 0.898194 14.594706 -1.721571 2.336516 -8.643240 -3.569562 3.797183 -2.577067 -2.100209 17.500383 -18.724869 -24.986576 158.935115 -82.816421 -118.412486 20.309048 -19.046574 -41.231501 -8.252360 -4.565513 -0.210607 2.296462 -3.145513 4.243856 -136.528564 -70.936449 102.627209 -10.020441 -9.119699 17.879844 7.407449 -38.385975 -7.092878 -2.894647 71.670365 -1.136300 3.258039 5.505701 6.050805 -0.054434 0.078891 -0.024122 -9.721973 -46.359144 2.818542 30.921800 68.235329 28.900867 -8.258068 32.385288 3.022700 0.868346 -23.522739 -6.696158
-84.683786 60.894074 4.228874 179.824853 -32.710952 -1.930161 1.606436 23.039672 3.957332 0.108646 3.371148 0.392896 0.241290 5.429936 0.670326 0.971690 19.400980 2.438622 0.842045 14.632456 -1.732089 2.236053 -8.504782 -3.553019 3.843810 -2.573647 -2.100885 17.430531 -18.712856 -24.995285 159.176028 -82.791641 -118.644861 20.306703 -19.045321 -41.211228 -8.272946 -4.553671 -0.216820 2.327657 -3.148076 4.234784 -136.529803 -70.936532 102.625004 -10.020634 -9.114465 17.875267 7.441431 -38.380792 -7.125896 -2.912351 71.685028 -1.163319 3.270035 5.495189 6.057062 -0.073936 0.075283 -0.008249 -9.693040 -46.357375 2.789134 30.885601 68.230090 28.843167 -8.251472 32.428928 3.051023 0.866864 -23.557872 -6.694513
-84.687925 60.895451 4.224452 179.874678 -32.723790 -1.930648 1.609345 23.039470 3.981614 0.162934 3.359016 0.430887 0.155166 5.446479 0.624136 0.994600 19.393132 2.460373 0.785181 14.669072 -1.746452 2.140237 -8.362640 -3.541931 3.841110 -2.562546 -2.105646 17.471190 -18.738136 -24.985415 158.894366 -82.790620 -118.388987 20.303286 -19.048529 -41.195439 -8.261315 -4.541260 -0.221108 2.329755 -3.151941 4.225280 -136.541376 -70.941036 102.632456 -10.017416 -9.107405 17.867784 7.458961 -38.359964 -7.144670 -2.946245 71.700750 -1.215073 3.243419 5.479345 6.088636 -0.069724 0.071608 -0.006457 -9.699624 -46.350655 2.754265 30.875130 68.225260 28.814430 -8.237287 32.460736 3.081524 0.860618 -23.581650 -6.698212
-84.692006 60.897921 4.218277 179.929345 -32.745827 -1.935264 1.616926 23.048952 4.016011 0.153001 3.360173 0.431874 0.130090 5.449472 0.607745 1.015025 19.386965 2.484456 0.732448 14.730136 -1.758668 2.044409 -8.243046 -3.542348 3.837582 -2.552124 -2.108469 17.450211 -18.737355 -24.998044 159.534390 -82.702812 -118.979715 20.285027 -18.972669 -41.180364 -8.243079 -4.528924 -0.224441 2.386591 -3.137523 4.233657 -136.758248 -70.947275 102.763960 -10.015286 -9.102786 17.863029 7.435471 -38.329641 -7.138183 -2.913747 71.714560 -1.236305 3.218898 5.460225 6.136559 -0.074122 0.067777 -0.016967 -9.712829 -46.333687 2.715186 30.868226 68.222637 28.800286 -8.235250 32.481009 3.085553 0.859858 -23.596265 -6.693357
-84.699920 60.897807 4.215898 179.969908 -32.751423 -1.918319 1.615094 23.045478 4.028028 0.130420 3.363926 0.415487 0.202346 5.435465 0.664054 0.921261 19.399435 2.437506 0.713506 14.830489 -1.752213 1.949946 -8.167447 -3.556631 3.859478 -2.548123 -2.097018 17.469640 -18.747902 -25.002195 159.535103 -82.682358 -118.987537 20.279983 -18.931885 -41.170325 -8.154478 -4.515748 -0.190691 2.323172 -3.135432 4.193624 -136.826038 -70.949796 102.817437 -10.023493 -9.061110 17.874589 7.448691 -38.322949 -7.178243 -2.954639 71.735360 -1.297229 3.224548 5.447686 6.154107 -0.071278 0.063377 -0.013819 -9.704274 -46.335787 2.664899 30.881498 68.207747 28.779563 -8.204217 32.528709 3.148418 0.844551 -23.629970 -6.707617
-84.711537 60.896284 4.215622 -179.963562 -32.747421 -1.901737 1.641026 23.023941 4.084443 0.055300 3.373584 0.361898 0.223125 5.433692 0.685107 0.887919 19.399710 2.423344 0.691270 14.891128 -1.753307 1.867169 -8.055855 -3.569160 3.883737 -2.542846 -2.085383 17.491951 -18.759575 -25.002064 159.507377 -82.666298 -118.968192 20.280124 -18.890193 -41.160566 -8.099652 -4.503097 -0.170109 2.261212 -3.140269 4.158703 -136.765730 -70.950099 102.800753 -10.021204 -9.038447 17.857465 7.452307 -38.325675 -7.221093 -3.056210 71.762315 -1.437770 3.229224 5.430799 6.175092 -0.070279 0.058612 0.002462 -9.702592 -46.352204 2.599781 30.937153 68.172877 28.779804 -8.168658 32.604527 3.252262 0.814897 -23.679713 -6.731224
-84.714748 60.896406 4.213620 -179.917708 -32.753943 -1.907473 1.634978 23.025401 4.108600 0.097827 3.368726 0.399905 0.187100 5.438419 0.662952 0.918018 19.396666 2.468055 0.590711 14.909222 -1.802952 1.800189 -7.908188 -3.579185 3.822840 -2.535749 -2.123910 17.524290 -18.774391 -24.990129 159.300044 -82.668399 -118.777936 20.285036 -18.929180 -41.143523 -8.122326 -4.497104 -0.192255 2.260638 -3.128975 4.146811 -136.809891 -70.951260 102.854921 -10.010169 -9.056718 17.819487 7.431200 -38.314810 -7.210539 -3.121429 71.771061 -1.544767 3.227524 5.419112 6.203893 -0.070913 0.058683 0.001722 -9.715016 -46.351447 2.578583 30.938108 68.167509 28.769200 -8.180717 32.629596 3.256351 0.828547 -23.702011 -6.729557
